<svg width="35" height="35" viewBox="0 0 35 35" fill="none" xmlns="http://www.w3.org/2000/svg">
<g clip-path="url(#clip0_185_7)">
<path d="M3.37188e-06 14.2188C-0.00221165 11.0012 1.08693 7.87805 3.08946 5.35961C5.09198 2.84117 7.88948 1.07637 11.0248 0.353617C14.1601 -0.369139 17.4479 -0.00712207 20.3509 1.38051C23.2538 2.76814 25.6003 5.09934 27.0069 7.99316C29.0429 8.98571 30.8123 10.4503 32.1678 12.265C33.5234 14.0797 34.4257 16.192 34.7998 18.426C35.1738 20.6599 35.0088 22.951 34.3183 25.1082C33.6279 27.2655 32.4321 29.2266 30.8304 30.8283C29.2288 32.4299 27.2677 33.6257 25.1104 34.3162C22.9531 35.0066 20.6621 35.1717 18.4281 34.7976C16.1942 34.4236 14.0819 33.5212 12.2672 32.1657C10.4525 30.8102 8.98787 29.0408 7.99532 27.0047C5.5978 25.8376 3.57678 24.0199 2.16302 21.759C0.749252 19.4981 -0.000279132 16.8853 3.37188e-06 14.2188ZM11.2525 28.1269C12.2968 29.4813 13.6178 30.5974 15.1275 31.4009C16.6372 32.2044 18.3008 32.6769 20.0075 32.7867C21.7142 32.8966 23.4247 32.6413 25.0249 32.0379C26.6251 31.4346 28.0784 30.497 29.2876 29.2877C30.4969 28.0784 31.4345 26.6252 32.0379 25.0249C32.6413 23.4247 32.8965 21.7142 32.7867 20.0076C32.6768 18.3009 32.2044 16.6372 31.4009 15.1276C30.5974 13.6179 29.4812 12.2968 28.1269 11.2525C28.6222 13.5723 28.5293 15.979 27.8567 18.2537C27.184 20.5283 25.953 22.5985 24.2758 24.2758C22.5985 25.953 20.5283 27.1841 18.2536 27.8567C15.979 28.5293 13.5722 28.6222 11.2525 28.1269ZM9.64907 25.351C10.4453 25.6806 11.2795 25.9212 12.1516 26.0729L8.92719 22.8485C9.07886 23.7191 9.31948 24.5533 9.64907 25.351ZM15.3672 26.1954C16.2392 26.1128 17.0996 25.9353 17.9331 25.666L9.56813 17.3032C9.27405 18.0956 9.05721 18.9146 8.92063 19.7488L15.3672 26.1954ZM20.0856 24.7254C20.736 24.3608 21.3471 23.9408 21.9188 23.4654L11.8519 13.4007C11.3737 13.9657 10.9441 14.5701 10.5678 15.2075L20.0856 24.7254ZM23.4653 21.9166C23.9393 21.3479 24.3593 20.7375 24.7253 20.0857L15.2097 10.5657C14.5715 10.9419 13.9663 11.3714 13.4006 11.8497L23.4631 21.9166H23.4653ZM25.6659 17.931C25.9328 17.1114 26.1093 16.2568 26.1953 15.3672L19.7488 8.92066C18.9029 9.06066 18.0877 9.2765 17.3031 9.56816L25.6659 17.9332V17.931ZM26.0728 12.1516C25.9235 11.2938 25.6814 10.4547 25.3509 9.6491C24.5454 9.31863 23.7063 9.07658 22.8484 8.92722L26.0728 12.1516Z" fill="#F5F5F5"/>
</g>
<defs>
<clipPath id="clip0_185_7">
<rect width="35" height="35" fill="white"/>
</clipPath>
</defs>
</svg>
