<svg width="35" height="35" viewBox="0 0 35 35" fill="none" xmlns="http://www.w3.org/2000/svg">
<path d="M13.125 29.1666H21.875V32.0833H13.125V29.1666ZM24.6546 19.9966C26.1567 18.2379 27.7083 16.4193 27.7083 13.125C27.7083 7.49725 23.1277 2.91663 17.5 2.91663C11.8723 2.91663 7.29167 7.49725 7.29167 13.125C7.29167 16.4573 8.84771 18.27 10.3556 20.0229C10.8777 20.6325 11.4188 21.2639 11.9365 21.9902C12.1465 22.2906 12.4906 23.4427 12.7983 24.7916H11.6433V27.7083H23.3567V24.7916H22.2046C22.5152 23.4398 22.8608 22.2848 23.0694 21.9843C23.5827 21.2508 24.1281 20.6135 24.6546 19.9966Z" fill="white"/>
</svg>
