<svg width="35" height="35" viewBox="0 0 35 35" fill="none" xmlns="http://www.w3.org/2000/svg">
<path d="M24.7916 4.87088C26.9912 6.14088 28.8209 7.96331 30.0997 10.1578C31.3785 12.3522 32.0619 14.8426 32.0825 17.3824C32.103 19.9222 31.4598 22.4233 30.2167 24.6381C28.9735 26.853 27.1734 28.7047 24.9947 30.0101C22.8159 31.3155 20.334 32.0292 17.7947 32.0806C15.2553 32.1319 12.7466 31.5192 10.5168 30.3031C8.28702 29.087 6.41352 27.3096 5.08176 25.1468C3.75001 22.9841 3.00618 20.5111 2.92392 17.9725L2.91663 17.5L2.92392 17.0275C3.00559 14.509 3.73847 12.0546 5.0511 9.90358C6.36373 7.75258 8.21133 5.97841 10.4138 4.75404C12.6162 3.52967 15.0983 2.89688 17.6181 2.91735C20.1379 2.93783 22.6094 3.61088 24.7916 4.87088ZM17.5 8.75005C17.1428 8.75009 16.798 8.88123 16.5311 9.11859C16.2642 9.35595 16.0936 9.68301 16.0518 10.0378L16.0416 10.2084V17.5L16.0548 17.6911C16.088 17.9441 16.1871 18.184 16.342 18.3867L16.4689 18.5325L20.8439 22.9075L20.981 23.0271C21.2368 23.2256 21.5513 23.3333 21.875 23.3333C22.1987 23.3333 22.5132 23.2256 22.7689 23.0271L22.906 22.9061L23.027 22.769C23.2255 22.5133 23.3332 22.1987 23.3332 21.875C23.3332 21.5513 23.2255 21.2368 23.027 20.9811L22.906 20.844L18.9583 16.8948V10.2084L18.9481 10.0378C18.9063 9.68301 18.7358 9.35595 18.4688 9.11859C18.2019 8.88123 17.8572 8.75009 17.5 8.75005Z" fill="#F5F5F5"/>
</svg>
