<svg width="35" height="35" viewBox="0 0 35 35" fill="none" xmlns="http://www.w3.org/2000/svg">
<path fill-rule="evenodd" clip-rule="evenodd" d="M1.66753 12.2575C4.62003 9.55002 7.94753 7.80502 11.4925 8.74752C10.6825 10.09 9.78003 11.655 8.89253 13.1975C8.82544 13.3136 8.75844 13.4296 8.69158 13.5454C7.98109 14.7754 7.28589 15.9789 6.65753 17.03L6.65253 17.04L1.89003 14.17C1.72806 14.0764 1.59022 13.9463 1.48749 13.79C1.38477 13.6336 1.32002 13.4555 1.2984 13.2697C1.27679 13.0839 1.29891 12.8956 1.363 12.7198C1.42709 12.5441 1.53137 12.3858 1.66753 12.2575ZM20.83 33.11L17.96 28.3475L17.9725 28.34C19.184 27.6132 20.4338 26.8927 21.6963 26.1648C21.8017 26.1041 21.9071 26.0433 22.0125 25.9825L22.22 25.8625C23.5775 25.08 24.9475 24.29 26.2525 23.505C27.1975 27.05 25.45 30.38 22.7425 33.33C22.6144 33.4663 22.4563 33.5707 22.2807 33.635C22.105 33.6993 21.9168 33.7216 21.731 33.7003C21.5452 33.6789 21.367 33.6144 21.2106 33.5119C21.0541 33.4094 20.9238 33.2718 20.83 33.11ZM9.40065 24.1855C8.55758 23.6283 7.56545 23.3396 6.55503 23.3575C5.8855 23.3693 5.22517 23.5155 4.6132 23.7873C4.00124 24.0591 3.45011 24.4511 2.99253 24.94C2.46253 25.4925 2.04753 26.3575 1.72753 27.16C1.38503 28.0125 1.08003 28.9875 0.830027 29.8975C0.580027 30.81 0.375027 31.68 0.242527 32.34C0.175027 32.6675 0.125027 32.955 0.0925266 33.175C0.0775266 33.28 0.0625266 33.395 0.0550266 33.495C0.0432931 33.6424 0.0534024 33.7906 0.0850266 33.935C0.129466 34.1384 0.223992 34.3274 0.360027 34.485C0.518419 34.6711 0.727888 34.8067 0.962527 34.875C1.12217 34.9264 1.29051 34.9451 1.45753 34.93L1.79003 34.8975C2.07137 34.8563 2.35148 34.8071 2.63003 34.75C3.29253 34.6175 4.16753 34.4175 5.08503 34.1675C6.01676 33.9176 6.93469 33.6189 7.83503 33.2725C8.63753 32.9525 9.50503 32.5375 10.06 32.0075C10.7979 31.317 11.3092 30.4191 11.5266 29.4322C11.744 28.4453 11.6572 27.4156 11.2777 26.479C10.8981 25.5424 10.2437 24.7428 9.40065 24.1855Z" fill="white"/>
<path fill-rule="evenodd" clip-rule="evenodd" d="M16.3675 25.6575L9.34253 18.6325C10.115 17.34 10.885 16.0025 11.6475 14.6725C14.1875 10.2575 16.6675 5.94752 18.9925 3.70502C25.3025 -2.60498 33.945 1.05502 33.945 1.05502C33.945 1.05502 37.6025 9.69752 31.295 16.0075C29.07 18.3125 24.8275 20.7575 20.445 23.2775C19.08 24.065 17.7025 24.8575 16.3675 25.6575ZM22.8759 6.53091C22.1342 7.27262 21.7175 8.27859 21.7175 9.32752C21.7435 10.3589 22.1739 11.3393 22.9125 12.0596C23.6512 12.7799 24.6421 13.1831 25.6738 13.1831C26.7055 13.1831 27.6964 12.7799 28.435 12.0596C29.1737 11.3393 29.6016 10.3589 29.6275 9.32752C29.6275 8.27859 29.2108 7.27262 28.4691 6.53091C27.7274 5.78921 26.7215 5.37252 25.6725 5.37252C24.6236 5.37252 23.6176 5.78921 22.8759 6.53091Z" fill="white"/>
</svg>
