<svg width="189" height="30" viewBox="0 0 189 30" fill="none" xmlns="http://www.w3.org/2000/svg">
<g clip-path="url(#clip0_110_4)">
<path d="M20.2574 29.9173H14.5248V24.4526H19.7847V4.99386C19.7847 2.24036 22.0293 0 24.788 0H33.6565V5.46476H25.2598V24.9226C25.2598 27.6761 23.0152 29.9164 20.2565 29.9164L20.2574 29.9173Z" fill="#634FED"/>
<path d="M7.07979 30H0.5V24.5353H6.39552V15.98C6.39552 13.3433 8.54467 11.1982 11.1863 11.1982H33.6574V16.663H11.8706V25.2183C11.8706 27.8549 9.72143 30 7.07979 30Z" fill="#634FED"/>
<path d="M33.6574 24.4202H28.1121V29.9551H33.6574V24.4202Z" fill="#634FED"/>
<path d="M48.2854 19.0633C48.2566 18.862 48.4007 18.747 48.5736 18.747H51.2566C51.4295 18.747 51.5159 18.8332 51.5447 19.0058C51.9202 21.5975 53.3337 22.6921 56.1897 22.6921C58.5846 22.6921 59.9982 21.5688 59.9982 19.6681C59.9982 18.055 59.1329 17.2776 56.9685 16.9038L54.3142 16.4428C50.5633 15.7805 48.6591 13.8798 48.6591 10.7408C48.6591 7.112 51.1981 4.95251 55.5261 4.95251C59.8541 4.95251 62.4219 7.112 62.8838 10.8846C62.9126 11.0859 62.7685 11.2009 62.5948 11.2009H59.9117C59.7677 11.2009 59.6515 11.1721 59.5948 10.8846C59.1905 8.69634 57.8634 7.7168 55.5261 7.7168C53.1888 7.7168 51.9778 8.66758 51.9778 10.4811C51.9778 12.122 53.0168 13.0441 55.3244 13.4467L57.9787 13.9077C61.7295 14.57 63.3169 16.2694 63.3169 19.6097C63.3169 23.2672 60.6338 25.4555 56.1906 25.4555C51.7473 25.4555 48.7752 23.1513 48.2854 19.0624V19.0633Z" fill="white"/>
<path d="M56.1905 25.734C51.4979 25.734 48.5159 23.3157 48.009 19.0992C47.9865 18.933 48.0297 18.7775 48.1315 18.6598C48.2368 18.5384 48.398 18.4684 48.5735 18.4684H51.2575C51.5636 18.4684 51.7689 18.6472 51.8211 18.9599C52.1759 21.4151 53.4418 22.4135 56.1914 22.4135C58.4351 22.4135 59.7217 21.4133 59.7217 19.6681C59.7217 18.205 58.9636 17.5301 56.9234 17.1779L54.2692 16.7169C50.3635 16.0267 48.3836 14.0164 48.3836 10.7408C48.3836 6.94213 51.0549 4.6748 55.5288 4.6748C60.0027 4.6748 62.6821 6.92595 63.1629 10.8513C63.1854 11.014 63.1422 11.1712 63.0395 11.289C62.9342 11.4103 62.773 11.4795 62.5975 11.4795H59.9144C59.5894 11.4795 59.3967 11.3024 59.3238 10.9385C58.9474 8.90121 57.7779 7.99446 55.5288 7.99446C53.2797 7.99446 52.2587 8.83111 52.2587 10.4811C52.2587 11.9863 53.1906 12.7915 55.3748 13.1734L58.0291 13.6345C61.933 14.3237 63.5978 16.1112 63.5978 19.6106C63.5978 23.4451 60.8292 25.734 56.1923 25.734H56.1905ZM51.2584 19.0066L48.5735 19.0246V19.0273L48.5618 19.03C49.0372 22.9949 51.7464 25.1778 56.1905 25.1778C60.6347 25.1778 63.0386 23.0965 63.0386 19.6106C63.0386 16.396 61.5594 14.8234 57.9309 14.1826L55.2776 13.7216C52.8367 13.2957 51.6996 12.2658 51.6996 10.482C51.6996 8.52017 53.0591 7.43909 55.527 7.43909C57.9949 7.43909 59.448 8.54983 59.8694 10.8342C59.8784 10.8792 59.8874 10.907 59.8946 10.9232C59.8991 10.9232 59.9054 10.9232 59.9126 10.9232H62.5957C62.159 7.25037 59.6443 5.23018 55.527 5.23018C51.4097 5.23018 48.9391 7.23869 48.9391 10.7399C48.9391 13.7477 50.7137 15.5234 54.3637 16.1678L57.0171 16.6288C59.3328 17.0296 60.2773 17.9094 60.2773 19.6672C60.2773 21.7341 58.7494 22.9688 56.1905 22.9688C53.1798 22.9688 51.6627 21.7584 51.2701 19.0444C51.2656 19.0174 51.2593 19.0058 51.2593 19.0058L51.2584 19.0066Z" fill="white"/>
<path d="M65.6272 17.9687C65.6272 13.4763 68.6271 10.4236 73.0425 10.4236C76.6493 10.4236 79.1874 12.4393 79.6205 15.4633C79.6493 15.6646 79.5052 15.7796 79.3315 15.7796H76.7925C76.5908 15.7796 76.5323 15.6933 76.4746 15.492C76.0992 13.7927 74.917 13.0153 73.0416 13.0153C70.4162 13.0153 68.8873 14.916 68.8873 17.9687C68.8873 21.0215 70.445 22.8637 73.0416 22.8637C75.0323 22.8637 76.1577 22.1439 76.6187 20.3583C76.6475 20.1857 76.7628 20.0995 76.9356 20.0995H79.4746C79.6475 20.0995 79.7915 20.1857 79.7627 20.3583C79.272 23.411 76.7916 25.4555 73.0407 25.4555C68.5398 25.4555 65.6254 22.5187 65.6254 17.9687H65.6272Z" fill="white"/>
<path d="M73.0416 25.734C68.3678 25.734 65.3481 22.6858 65.3481 17.9687C65.3481 13.2516 68.4399 10.1459 73.0416 10.1459C76.7456 10.1459 79.4359 12.2173 79.896 15.4246C79.9194 15.5927 79.8762 15.7499 79.7735 15.8676C79.6682 15.989 79.507 16.0582 79.3315 16.0582H76.7925C76.3468 16.0582 76.2522 15.7275 76.2072 15.5684C75.8678 14.0317 74.8342 13.293 73.0425 13.293C70.6151 13.293 69.1665 15.0409 69.1665 17.9678C69.1665 20.8948 70.5791 22.5851 73.0425 22.5851C74.9449 22.5851 75.9335 21.8986 76.3504 20.2882C76.3963 20.0087 76.6232 19.8209 76.9374 19.8209H79.4764C79.6691 19.8209 79.833 19.8883 79.9374 20.0114C80.0283 20.1183 80.0643 20.2576 80.04 20.4041C79.5115 23.6905 76.8303 25.7332 73.0434 25.7332L73.0416 25.734ZM73.0416 10.7021C68.773 10.7021 65.9054 13.6228 65.9054 17.9687C65.9054 22.3146 68.7064 25.1778 73.0416 25.1778C76.5116 25.1778 78.9722 23.3409 79.4782 20.378H76.9365C76.9122 20.378 76.8987 20.3816 76.896 20.3834L76.8897 20.4284C76.4044 22.3057 75.2177 23.1423 73.0425 23.1423C70.2667 23.1423 68.6091 21.2084 68.6091 17.9687C68.6091 14.729 70.3081 12.7376 73.0425 12.7376C75.1061 12.7376 76.3531 13.6444 76.7474 15.4327C76.7573 15.4668 76.7664 15.4884 76.7718 15.5019C76.7763 15.5019 76.7835 15.5019 76.7925 15.5019H79.3315C78.9263 12.5866 76.453 10.7021 73.0416 10.7021Z" fill="white"/>
<path d="M81.7849 17.9687C81.7849 13.3901 84.3239 10.4236 88.3053 10.4236C90.2096 10.4236 91.9986 11.3447 93.0079 12.8428H93.1231V10.8846C93.1231 10.7121 93.2384 10.597 93.4121 10.597H96.0376C96.2104 10.597 96.3257 10.7121 96.3257 10.8846V22.7487H97.913C98.0859 22.7487 98.2011 22.8638 98.2011 23.0372V24.9954C98.2011 25.1679 98.0859 25.2838 97.913 25.2838H95.7783C94.0757 25.2838 93.2681 24.5928 93.2681 23.1819V23.0668H93.1528C92.1714 24.5353 90.2969 25.4564 88.3062 25.4564C84.3248 25.4564 81.7858 22.5196 81.7858 17.9696L81.7849 17.9687ZM89.2003 22.8637C91.7393 22.8637 93.2393 21.0206 93.2393 17.9687C93.2393 14.9169 91.7105 13.0153 89.2003 13.0153C86.6901 13.0153 85.046 14.8872 85.046 17.9687C85.046 21.0503 86.6325 22.8637 89.2003 22.8637Z" fill="white"/>
<path d="M88.3053 25.734C84.1754 25.734 81.5058 22.6858 81.5058 17.9687C81.5058 13.2516 84.1745 10.1459 88.3053 10.1459C90.0637 10.1459 91.7483 10.9097 92.844 12.1733V10.8846C92.844 10.5566 93.0826 10.3184 93.4112 10.3184H96.0367C96.3653 10.3184 96.6039 10.5566 96.6039 10.8846V22.471H97.9121C98.2407 22.471 98.4793 22.7092 98.4793 23.0372V24.9954C98.4793 25.3234 98.2407 25.5615 97.9121 25.5615H95.7773C94.1378 25.5615 93.2149 24.9333 93.025 23.6923C91.9346 24.9639 90.1798 25.734 88.3044 25.734H88.3053ZM88.3053 10.7021C84.5139 10.7021 82.0631 13.5545 82.0631 17.9687C82.0631 22.3829 84.513 25.1778 88.3053 25.1778C90.2177 25.1778 91.986 24.3097 92.9205 22.9123L93.0034 22.7882H93.5463V23.181C93.5463 24.4427 94.235 25.0052 95.7782 25.0052H97.913L97.9229 23.0372L96.0475 23.0273V10.8846L93.4121 10.8747L93.4022 13.1204H92.8602L92.7774 12.9973C91.8221 11.581 90.1087 10.7012 88.3062 10.7012L88.3053 10.7021ZM89.1994 23.1423C86.465 23.1423 84.766 21.1599 84.766 17.9687C84.766 14.7776 86.465 12.7376 89.1994 12.7376C91.9337 12.7376 93.5175 14.7425 93.5175 17.9687C93.5175 21.1949 91.9031 23.1423 89.1994 23.1423ZM89.1994 13.2939C86.772 13.2939 85.3233 15.0418 85.3233 17.9687C85.3233 20.8957 86.772 22.586 89.1994 22.586C91.6267 22.586 92.9601 20.8597 92.9601 17.9687C92.9601 15.0777 91.5547 13.2939 89.1994 13.2939Z" fill="white"/>
<path d="M100.655 21.1077V4.83744C100.655 4.66489 100.77 4.54987 100.943 4.54987H103.568C103.741 4.54987 103.856 4.66489 103.856 4.83744V22.7495H106.539C106.712 22.7495 106.828 22.8646 106.828 23.038V24.9962C106.828 25.1687 106.713 25.2847 106.539 25.2847H104.837C102.125 25.2847 100.653 23.8163 100.653 21.1086L100.655 21.1077Z" fill="white"/>
<path d="M106.54 25.5615H104.838C101.961 25.5615 100.376 23.9798 100.376 21.1077V4.83746C100.376 4.50945 100.615 4.2713 100.944 4.2713H103.569C103.898 4.2713 104.136 4.50945 104.136 4.83746V22.471H106.541C106.87 22.471 107.108 22.7091 107.108 23.0371V24.9953C107.108 25.3233 106.87 25.5615 106.541 25.5615H106.54ZM100.943 4.82757L100.933 21.1077C100.933 23.6572 102.283 25.0052 104.838 25.0052H106.539L106.549 23.0371L103.577 23.0273V4.83746L100.942 4.82757H100.943Z" fill="white"/>
<path d="M108.128 17.9687C108.128 13.3613 111.042 10.4236 115.573 10.4236C119.756 10.4236 122.352 13.3038 122.352 17.94V18.7173C122.352 18.8899 122.237 19.0049 122.064 19.0049H111.417C111.648 21.4241 113.09 22.8637 115.572 22.8637C117.534 22.8637 118.717 22.1152 119.12 20.9056C119.178 20.733 119.264 20.6755 119.437 20.6755H121.976C122.178 20.6755 122.293 20.7618 122.264 20.9056C121.744 23.5836 119.35 25.4555 115.571 25.4555C111.041 25.4555 108.127 22.5187 108.127 17.9687H108.128ZM119.207 16.6729C119.063 14.3975 117.678 13.0153 115.572 13.0153C113.148 13.0153 111.734 14.2824 111.446 16.6729H119.207Z" fill="white"/>
<path d="M115.573 25.734C110.881 25.734 107.85 22.6858 107.85 17.9687C107.85 13.2516 110.882 10.1459 115.573 10.1459C119.927 10.1459 122.631 13.1321 122.631 17.94V18.7173C122.631 19.0453 122.393 19.2835 122.064 19.2835H111.732C112.041 21.4169 113.395 22.586 115.573 22.586C117.335 22.586 118.471 21.9749 118.857 20.8184C118.952 20.5353 119.142 20.3978 119.439 20.3978H121.978C122.241 20.3978 122.38 20.5011 122.451 20.5874C122.536 20.6908 122.567 20.8229 122.539 20.9613C121.969 23.9044 119.3 25.734 115.573 25.734H115.573ZM115.573 10.7021C111.219 10.7021 108.408 13.5545 108.408 17.9687C108.408 22.3829 111.22 25.1778 115.573 25.1778C118.971 25.1778 121.413 23.562 121.971 20.9541H119.438C119.419 20.9541 119.406 20.955 119.398 20.9559C119.397 20.9613 119.392 20.9738 119.385 20.9936C118.922 22.3793 117.568 23.1423 115.572 23.1423C113.004 23.1423 111.389 21.6442 111.139 19.0318L111.11 18.7272H122.063L122.073 17.94C122.073 13.4754 119.582 10.7021 115.572 10.7021H115.573ZM119.504 16.9514H111.133L111.171 16.6405C111.479 14.0874 113.001 12.7385 115.573 12.7385C117.834 12.7385 119.333 14.2393 119.486 16.6567L119.505 16.9523L119.504 16.9514ZM111.769 16.3952H118.903C118.674 14.4469 117.447 13.2939 115.573 13.2939C113.398 13.2939 112.12 14.3372 111.769 16.3952Z" fill="white"/>
<path d="M126.883 24.9954V13.1312H124.373C124.2 13.1312 124.084 13.0162 124.084 12.8437V10.8855C124.084 10.7129 124.199 10.5979 124.373 10.5979H126.883V8.72601C126.883 6.01924 128.354 4.54993 131.067 4.54993H133.635C133.807 4.54993 133.923 4.66496 133.923 4.8375L133.966 7.40408C133.966 7.57662 133.851 7.69165 133.678 7.69165H130.129L130.085 10.597H139.722C139.895 10.597 140.01 10.712 140.01 10.8846V12.8428C140.01 13.0153 139.895 13.1303 139.722 13.1303H130.085V24.9945C130.085 25.167 129.97 25.2829 129.797 25.2829H127.172C126.999 25.2829 126.883 25.1679 126.883 24.9945V24.9954ZM136.577 4.83211C136.577 4.65957 136.692 4.54364 136.866 4.54364H139.982C140.155 4.54364 140.27 4.65867 140.27 4.83211V7.40318C140.27 7.57572 140.155 7.69075 139.982 7.69075H136.866C136.693 7.69075 136.577 7.57572 136.577 7.40318V4.83211ZM136.808 10.8846C136.808 10.712 136.924 10.597 137.096 10.597H139.722C139.895 10.597 140.01 10.712 140.01 10.8846V24.9954C140.01 25.1679 139.895 25.2838 139.722 25.2838H137.096C136.924 25.2838 136.808 25.1688 136.808 24.9954V10.8846Z" fill="white"/>
<path d="M139.722 25.5615H137.096C136.768 25.5615 136.529 25.3234 136.529 24.9953V13.4089H130.364V24.9953C130.364 25.3234 130.125 25.5615 129.796 25.5615H127.171C126.842 25.5615 126.604 25.3234 126.604 24.9953V13.4089H124.373C124.044 13.4089 123.805 13.1708 123.805 12.8428V10.8846C123.805 10.5566 124.044 10.3184 124.373 10.3184H126.604V8.72509C126.604 5.85296 128.188 4.27132 131.066 4.27132H133.634C133.962 4.27132 134.201 4.50947 134.201 4.83748L134.244 7.39956C134.244 7.73206 134.006 7.97021 133.677 7.97021H130.367V10.3193H139.721C140.05 10.3193 140.288 10.5575 140.288 10.8855V24.9962C140.288 25.3243 140.05 25.5624 139.721 25.5624L139.722 25.5615ZM124.373 10.8747L124.363 12.8428L127.162 12.8526V24.9953C127.162 25.0088 127.164 25.0142 127.164 25.0142L129.797 25.0061L129.807 12.8535H136.529V10.8819L129.803 10.8756L129.854 7.41394H133.678L133.644 4.84197L131.067 4.82759C128.512 4.82759 127.162 6.17558 127.162 8.72509V10.8747H124.374H124.373ZM137.087 13.4089V24.9953L139.722 25.0052L139.73 13.4089H137.087ZM137.087 12.8526H139.722L139.732 10.8846L137.089 10.8819L137.087 10.8846V12.8526ZM139.981 7.96931H136.865C136.536 7.96931 136.298 7.73117 136.298 7.40316V4.83209C136.298 4.50408 136.536 4.26593 136.865 4.26593H139.981C140.31 4.26593 140.548 4.50408 140.548 4.83209V7.40316C140.548 7.73117 140.31 7.96931 139.981 7.96931ZM136.865 4.8222L136.855 4.83209V7.40316L139.981 7.41304L139.991 4.83209L136.865 4.8222Z" fill="white"/>
<path d="M142.724 24.9378L148.062 17.8249V17.7099L143.128 10.943C142.984 10.7704 143.07 10.5979 143.301 10.5979H146.359C146.503 10.5979 146.619 10.6267 146.706 10.7704L149.908 15.4354H150.024L153.226 10.7704C153.313 10.6267 153.428 10.5979 153.573 10.5979H156.515C156.747 10.5979 156.833 10.7704 156.688 10.943L151.812 17.5086V17.6236L157.091 24.9387C157.236 25.1113 157.149 25.2838 156.919 25.2838H153.86C153.716 25.2838 153.601 25.2551 153.514 25.1113L149.937 19.8703H149.822L146.186 25.1113C146.1 25.2551 145.985 25.2838 145.84 25.2838H142.897C142.666 25.2838 142.58 25.1113 142.725 24.9387L142.724 24.9378Z" fill="white"/>
<path d="M156.919 25.5615H153.86C153.688 25.5615 153.441 25.5301 153.275 25.2542L149.877 20.2774L146.414 25.2695C146.258 25.5301 146.011 25.5624 145.839 25.5624H142.896C142.675 25.5624 142.495 25.4609 142.415 25.2901C142.337 25.1248 142.371 24.9298 142.504 24.7671L147.758 17.7665L142.902 11.1066C142.776 10.9556 142.741 10.7579 142.819 10.5907C142.899 10.4209 143.078 10.3193 143.301 10.3193H146.359C146.531 10.3193 146.778 10.3508 146.944 10.6267L149.965 15.0274L152.996 10.6132C153.153 10.3517 153.401 10.3193 153.572 10.3193H156.514C156.736 10.3193 156.916 10.4209 156.996 10.5907C157.074 10.7579 157.039 10.9556 156.902 11.12L152.114 17.567L157.317 24.7752C157.443 24.9235 157.478 25.1221 157.399 25.2892C157.319 25.4591 157.139 25.5615 156.918 25.5615H156.919ZM149.676 19.5917H150.085L153.745 24.954C153.772 24.9981 153.776 25.0053 153.861 25.0053H156.798L151.534 17.7126V17.4161L156.391 10.8774L153.574 10.8747C153.489 10.8747 153.485 10.8819 153.466 10.9125L150.171 15.7122H149.763L146.477 10.9259C146.45 10.8819 146.446 10.8747 146.361 10.8747H143.425L148.343 17.6192V17.9175L143.025 25.0035L145.842 25.0062C145.926 25.0062 145.931 24.999 145.95 24.9684L149.678 19.5926L149.676 19.5917Z" fill="white"/>
<path d="M159.661 24.9954V21.3954C159.661 21.2228 159.776 21.1078 159.95 21.1078H163.498C163.671 21.1078 163.787 21.2228 163.787 21.3954V24.9954C163.787 25.1679 163.671 25.2839 163.498 25.2839H159.95C159.777 25.2839 159.661 25.1688 159.661 24.9954Z" fill="#634FED"/>
<path d="M163.498 25.5615H159.95C159.621 25.5615 159.383 25.3234 159.383 24.9954V21.3962C159.383 21.0682 159.621 20.8301 159.95 20.8301H163.498C163.827 20.8301 164.066 21.0682 164.066 21.3962V24.9954C164.066 25.3234 163.827 25.5615 163.498 25.5615ZM159.95 21.3863L159.94 24.9954C159.94 25.0089 159.942 25.0133 159.942 25.0142L163.498 25.0062L163.508 21.3962L159.95 21.3863Z" fill="#634FED"/>
<path d="M167.162 4.83211C167.162 4.65957 167.277 4.54364 167.451 4.54364H170.567C170.74 4.54364 170.855 4.65867 170.855 4.83211V7.40318C170.855 7.57572 170.74 7.69075 170.567 7.69075H167.451C167.278 7.69075 167.162 7.57572 167.162 7.40318V4.83211ZM167.393 24.9954V10.8846C167.393 10.712 167.509 10.597 167.681 10.597H170.307C170.48 10.597 170.595 10.712 170.595 10.8846V24.9954C170.595 25.1679 170.48 25.2838 170.307 25.2838H167.681C167.509 25.2838 167.393 25.1688 167.393 24.9954Z" fill="#634FED"/>
<path d="M170.308 25.5615H167.682C167.354 25.5615 167.115 25.3234 167.115 24.9953V10.8846C167.115 10.5566 167.354 10.3184 167.682 10.3184H170.308C170.636 10.3184 170.875 10.5566 170.875 10.8846V24.9953C170.875 25.3234 170.636 25.5615 170.308 25.5615ZM167.682 10.8747L167.672 24.9953C167.672 25.0079 167.674 25.0133 167.674 25.0133L170.308 25.0052L170.318 10.8846L167.682 10.8747ZM170.568 7.96931H167.452C167.123 7.96931 166.885 7.73117 166.885 7.40316V4.83209C166.885 4.50408 167.123 4.26593 167.452 4.26593H170.568C170.897 4.26593 171.135 4.50408 171.135 4.83209V7.40316C171.135 7.73117 170.897 7.96931 170.568 7.96931ZM167.452 4.8222L167.442 4.83209V7.40316L170.568 7.41304L170.578 4.83209L167.452 4.8222Z" fill="#634FED"/>
<path d="M173.482 17.9687C173.482 13.4763 176.482 10.4236 180.838 10.4236C185.195 10.4236 188.254 13.4763 188.254 17.9687C188.254 22.4611 185.253 25.4555 180.838 25.4555C176.424 25.4555 173.482 22.4315 173.482 17.9687ZM180.838 22.8637C183.406 22.8637 184.993 21.0206 184.993 17.9687C184.993 14.9169 183.434 13.0153 180.838 13.0153C178.243 13.0153 176.742 14.8872 176.742 17.9687C176.742 21.0503 178.271 22.8637 180.838 22.8637Z" fill="#634FED"/>
<path d="M180.839 25.734C176.273 25.734 173.203 22.613 173.203 17.9687C173.203 13.3244 176.343 10.1459 180.839 10.1459C185.336 10.1459 188.533 13.2894 188.533 17.9687C188.533 22.648 185.441 25.734 180.839 25.734ZM180.839 10.7021C176.606 10.7021 173.761 13.6228 173.761 17.9687C173.761 22.3146 176.605 25.1778 180.839 25.1778C185.074 25.1778 187.975 22.2805 187.975 17.9687C187.975 13.6569 185.108 10.7021 180.839 10.7021ZM180.839 23.1423C178.141 23.1423 176.464 21.1599 176.464 17.9687C176.464 14.7776 178.14 12.7376 180.839 12.7376C183.539 12.7376 185.273 14.7425 185.273 17.9687C185.273 21.1949 183.574 23.1423 180.839 23.1423ZM180.839 13.2939C178.449 13.2939 177.021 15.0418 177.021 17.9687C177.021 20.8957 178.448 22.586 180.839 22.586C183.231 22.586 184.715 20.8597 184.715 17.9687C184.715 15.0777 183.267 13.2939 180.839 13.2939Z" fill="#634FED"/>
</g>
<defs>
<clipPath id="clip0_110_4">
<rect width="188.033" height="30" fill="white" transform="translate(0.5)"/>
</clipPath>
</defs>
</svg>
