<svg width="35" height="35" viewBox="0 0 35 35" fill="none" xmlns="http://www.w3.org/2000/svg">
<path d="M17.5 2.91663C9.43538 2.91663 2.91663 9.47913 2.91663 17.5C2.91663 21.3677 4.45308 25.077 7.18799 27.8119C8.54217 29.1661 10.1498 30.2403 11.9192 30.9732C13.6885 31.7061 15.5848 32.0833 17.5 32.0833C21.3677 32.0833 25.077 30.5468 27.8119 27.8119C30.5468 25.077 32.0833 21.3677 32.0833 17.5C32.0833 15.5848 31.7061 13.6885 30.9732 11.9192C30.2403 10.1498 29.1661 8.54217 27.8119 7.18799C26.4577 5.8338 24.8501 4.7596 23.0808 4.02672C21.3114 3.29384 19.4151 2.91663 17.5 2.91663ZM22.6041 11.6666C23.1843 11.6666 23.7407 11.8971 24.1509 12.3073C24.5612 12.7176 24.7916 13.274 24.7916 13.8541C24.7916 14.4343 24.5612 14.9907 24.1509 15.4009C23.7407 15.8112 23.1843 16.0416 22.6041 16.0416C22.024 16.0416 21.4676 15.8112 21.0573 15.4009C20.6471 14.9907 20.4166 14.4343 20.4166 13.8541C20.4166 13.274 20.6471 12.7176 21.0573 12.3073C21.4676 11.8971 22.024 11.6666 22.6041 11.6666ZM12.3958 11.6666C12.976 11.6666 13.5324 11.8971 13.9426 12.3073C14.3528 12.7176 14.5833 13.274 14.5833 13.8541C14.5833 14.4343 14.3528 14.9907 13.9426 15.4009C13.5324 15.8112 12.976 16.0416 12.3958 16.0416C11.8156 16.0416 11.2592 15.8112 10.849 15.4009C10.4388 14.9907 10.2083 14.4343 10.2083 13.8541C10.2083 13.274 10.4388 12.7176 10.849 12.3073C11.2592 11.8971 11.8156 11.6666 12.3958 11.6666ZM17.5 25.5208C14.102 25.5208 11.2145 23.3916 10.0479 20.4166H24.952C23.7708 23.3916 20.8979 25.5208 17.5 25.5208Z" fill="white"/>
</svg>
